<svg version="1.1" id="Capa_1" xmlns="http://www.w3.org/2000/svg" xmlns:xlink="http://www.w3.org/1999/xlink" x="0px" y="0px" width="500px" height="500px" viewBox="0 0 500 500" style="enable-background:new 0 0 45.057 45.057;" xml:space="preserve"><g><g id="_x35_8_24_"><g><linearGradient id="color">
        <stop offset="45deg" stop-color="" />
        <stop offset="-20%" stop-color="orange" />
        <stop offset="50%" stop-color="purple" />
        <!-- background-image: linear-gradient(45deg, #0072F5 -20%, #FF4ECD 50%) -->
    </linearGradient>
    <path fill="url(#color)"
        d="M217.036 281.743a16.646 16.646 0 0 1 -2.93 5.049q-1.798 2.142 -4.394 3.34a15.536 15.536 0 0 1 -6.325 1.187q-5.205 0 -8.656 -2.253a16.646 16.646 0 0 1 -5.526 -6.004 28.852 28.852 0 0 1 -2.996 -8.389 47.717 47.717 0 0 1 -0.932 -9.455q0 -4.805 0.932 -9.466 0.932 -4.683 2.996 -8.389 2.064 -3.74 5.526 -6.004t8.656 -2.253q4.517 0 7.391 1.709 2.863 1.742 4.594 4.006t2.397 4.594 0.932 3.662h28.497q-1.864 -17.977 -12.595 -27.765 -10.72 -9.799 -30.417 -9.932 -11.064 0 -19.908 3.595 -8.855 3.584 -15.181 10.121 -6.325 6.514 -9.721 15.713a58.814 58.814 0 0 0 -3.407 20.374q0 10.52 3.196 19.642 3.207 9.122 9.399 15.78c6.192 6.658 9.155 7.957 15.103 10.531q8.922 3.84 20.518 3.862 10.387 0 18.51 -3.462 8.101 -3.473 13.638 -9.122c5.537 -5.648 6.481 -8.023 8.389 -12.717q2.874 -7.047 2.874 -14.238h-28.775q-0.644 3.351 -1.787 6.281"/><path fill="url(#color)" points="26.62,24.812 26.596,24.812 25.192,19.616 22.528,19.616 25.084,28.184 28.036,28.184 30.713,19.616 28,19.616 
							" d="M295.404 275.34L295.137 275.34L279.557 217.68L249.994 217.68L278.359 312.759L311.117 312.759L340.824 217.68L310.718 217.68Z"/><path fill="url(#color)" d="M370.986 0H57.472v500h385.057V69.368zm38.252 466.698H90.763V33.291h263.067v52.822h55.396z"/></g></g></g></svg>