<svg fill="#000000" width="400px" height="400px" viewBox="0 0 16 16" version="1.1" xmlns="http://www.w3.org/2000/svg"><title>medium</title><linearGradient id="color">
        <stop offset="45deg" stop-color="" />
        <stop offset="-20%" stop-color="orange" />
        <stop offset="50%" stop-color="purple" />
        <!-- background-image: linear-gradient(45deg, #0072F5 -20%, #FF4ECD 50%) -->
    </linearGradient>
    <path fill="url(#color)" d="M15.477 8c0 1.976 -0.331 3.583 -0.742 3.583S13.995 9.976 13.995 8s0.331 -3.583 0.742 -3.583 0.742 1.607 0.742 3.583m-1.894 0c0 2.206 -0.941 4 -2.106 4S9.365 10.206 9.365 8s0.947 -4 2.112 -4 2.106 1.794 2.106 4m-4.624 0a4.237 4.237 0 1 1 -1.23 -2.998l0.001 0.001a4.22 4.22 0 0 1 1.23 2.985z"/></svg>